<?xml version="1.0" standalone="no"?>
<!DOCTYPE svg PUBLIC "-//W3C//DTD SVG 20010904//EN"
 "http://www.w3.org/TR/2001/REC-SVG-20010904/DTD/svg10.dtd">
<svg version="1.0" xmlns="http://www.w3.org/2000/svg"
 width="300.000000pt" height="227.000000pt" viewBox="0 0 300.000000 227.000000"
 preserveAspectRatio="xMidYMid meet">
<metadata>
Created by potrace 1.10, written by Peter Selinger 2001-2011
</metadata>
<g transform="translate(0.000000,227.000000) scale(0.100000,-0.100000)"
fill="#000000" stroke="none">
<path d="M1915 2000 l-180 -68 -220 -2 c-121 -1 -269 -5 -330 -9 -60 -5 -222
-16 -360 -26 -261 -17 -319 -29 -331 -67 -10 -33 4 -65 36 -78 35 -15 304 -10
573 10 186 14 210 10 228 -37 13 -35 -4 -98 -31 -113 -12 -6 -156 -10 -385
-10 -416 0 -424 -1 -425 -72 0 -18 8 -33 25 -44 21 -14 23 -18 11 -28 -27 -21
-28 -52 -2 -83 l24 -28 289 5 c158 3 351 5 428 5 l139 0 15 -26 c12 -21 13
-37 5 -75 -7 -40 -13 -49 -36 -55 -15 -4 -203 -3 -419 3 -424 10 -442 9 -460
-41 -13 -32 4 -66 40 -80 14 -6 74 -12 133 -14 60 -1 108 -5 108 -8 0 -3 -9
-14 -20 -24 -26 -24 -25 -47 4 -82 57 -69 62 -124 16 -176 -32 -37 -39 -77
-16 -96 11 -9 214 -12 814 -12 876 -1 833 -4 879 59 12 16 29 53 39 81 14 44
15 61 5 109 -6 31 -22 73 -36 94 -29 44 -31 52 -9 44 44 -17 126 61 154 149
31 96 3 221 -66 289 -42 41 -62 46 -185 46 l-110 0 21 28 c27 36 45 126 36
183 -10 65 -45 130 -86 157 -33 22 -42 23 -187 20 -92 -2 -152 1 -150 6 2 6
50 25 108 44 57 19 107 40 111 46 12 18 9 46 -4 45 -7 -1 -94 -32 -193 -69z
m260 -146 c35 -16 63 -61 72 -118 7 -45 -21 -137 -52 -168 l-24 -25 -415 -7
c-228 -3 -427 -11 -443 -16 -17 -6 -169 -9 -388 -8 -291 2 -360 6 -360 16 0
11 67 13 355 13 403 0 426 3 462 69 29 53 21 151 -15 187 -25 26 -32 27 -114
26 -49 0 -200 -8 -336 -17 -320 -21 -359 -21 -355 -1 2 12 20 17 73 20 240 13
622 36 635 39 8 2 208 4 443 5 372 1 433 -1 462 -15z m315 -396 c74 -51 98
-175 52 -270 -44 -88 -3 -83 -632 -86 -674 -4 -1308 12 -1330 34 -18 17 60 18
485 5 154 -5 302 -6 329 -2 69 9 90 39 94 134 4 98 -16 139 -73 148 -22 4
-191 1 -375 -7 -453 -18 -460 -18 -460 4 0 17 31 19 493 36 492 17 592 20
1108 24 272 2 277 2 309 -20z m-110 -433 c55 -50 78 -135 55 -204 -31 -94 46
-85 -829 -91 -424 -3 -773 -4 -775 -2 -3 1 5 12 16 25 45 49 55 99 28 151 -8
15 -15 30 -15 33 0 2 153 3 340 2 188 -1 342 0 344 2 2 2 6 16 10 32 l6 27
-367 0 c-371 -1 -415 3 -344 33 25 11 184 13 770 13 724 -1 739 -1 761 -21z"/>
<path d="M1633 997 c-18 -7 -38 -18 -45 -25 -7 -7 9 -4 37 8 71 30 77 42 8 17z"/>
<path d="M1450 501 c0 -5 7 -11 15 -15 12 -4 15 -24 15 -91 0 -67 -3 -87 -15
-91 -28 -11 -15 -24 25 -24 43 0 49 6 23 25 -16 12 -13 45 5 45 6 0 22 -16 36
-35 15 -19 34 -35 42 -35 21 0 18 7 -21 55 l-36 43 38 31 38 31 -38 0 c-33 0
-37 -3 -33 -18 4 -12 -3 -27 -19 -42 l-25 -23 0 74 c0 72 -1 75 -25 77 -14 1
-25 -2 -25 -7z"/>
<path d="M2020 501 c0 -5 7 -11 15 -15 12 -4 15 -24 15 -91 0 -67 -3 -87 -15
-91 -8 -4 -15 -10 -15 -15 0 -14 48 -11 53 4 3 9 7 9 20 -2 43 -35 96 24 83
94 -9 44 -46 66 -77 47 -28 -18 -31 -16 -27 29 3 39 1 42 -24 46 -16 2 -28 0
-28 -6z m124 -112 c18 -52 -17 -106 -50 -78 -18 14 -19 95 -1 102 23 10 42 2
51 -24z"/>
<path d="M940 481 c0 -5 7 -11 15 -15 12 -4 15 -23 15 -81 0 -58 -3 -77 -15
-81 -32 -13 -12 -24 43 -24 67 0 102 19 102 55 0 13 -9 33 -21 43 -17 17 -18
20 -5 25 24 9 19 53 -6 71 -24 17 -128 23 -128 7z m108 -20 c8 -4 12 -19 10
-32 -2 -18 -10 -25 -30 -27 -26 -3 -28 -1 -28 32 0 37 17 47 48 27z m18 -106
c8 -31 -10 -55 -42 -55 -21 0 -24 5 -24 40 0 38 2 40 30 40 23 0 31 -5 36 -25z"/>
<path d="M1620 481 c0 -5 7 -11 15 -15 12 -4 15 -24 15 -86 0 -64 -3 -80 -15
-80 -8 0 -15 -4 -15 -10 0 -5 20 -10 45 -10 25 0 45 5 45 10 0 6 -7 10 -15 10
-11 0 -15 11 -15 40 l0 40 45 0 45 0 0 -40 c0 -29 -4 -40 -15 -40 -8 0 -15 -4
-15 -10 0 -5 20 -10 45 -10 25 0 45 5 45 10 0 6 -7 10 -15 10 -12 0 -15 16
-15 80 0 62 3 82 15 86 30 12 14 24 -30 24 -25 0 -45 -4 -45 -10 0 -5 7 -10
15 -10 10 0 15 -11 15 -35 0 -35 0 -35 -45 -35 -45 0 -45 0 -45 35 0 24 5 35
15 35 8 0 15 5 15 10 0 6 -20 10 -45 10 -25 0 -45 -4 -45 -9z"/>
<path d="M1156 427 c-28 -21 -32 -87 -6 -119 24 -31 55 -36 88 -12 29 20 32
102 4 127 -22 20 -61 22 -86 4z m72 -64 c3 -46 1 -52 -19 -58 -28 -9 -49 16
-49 60 0 37 17 57 45 53 17 -3 21 -12 23 -55z"/>
<path d="M1322 424 c-30 -21 -31 -95 -2 -124 45 -45 110 -10 110 60 0 68 -55
101 -108 64z m67 -18 c17 -20 10 -87 -11 -99 -26 -17 -48 9 -48 58 0 23 3 45
7 48 11 12 40 8 52 -7z"/>
<path d="M1853 426 c13 -10 17 -28 17 -70 0 -51 2 -58 26 -68 19 -9 30 -9 44
0 12 7 21 8 25 2 8 -13 45 -13 45 0 0 6 -4 10 -10 10 -6 0 -10 30 -10 70 l0
70 -32 0 c-30 -1 -31 -2 -15 -14 26 -20 24 -102 -4 -117 -32 -17 -44 3 -44 72
l1 59 -31 0 c-27 -1 -28 -2 -12 -14z"/>
</g>
</svg>
